<svg width="762" height="300" viewBox="0 0 762 300" fill="none" xmlns="http://www.w3.org/2000/svg">
<mask id="mask0_937_1509" style="mask-type:alpha" maskUnits="userSpaceOnUse" x="16" y="18" width="731" height="264">
<path d="M84.6 281.55C105.075 281.55 122.4 273.325 134.825 258.45V264.75C134.825 272.8 139.375 277.35 147.425 277.35H178.4C186.45 277.35 191 272.8 191 264.75V108.65C191 100.6 186.45 96.05 178.4 96.05H147.425C139.375 96.05 134.825 100.6 134.825 108.65V192.825C134.825 218.55 119.95 232.375 101.4 232.375C85.125 232.375 72.175 218.025 72.175 201.05V108.65C72.175 100.6 67.625 96.05 59.575 96.05H28.6C20.55 96.05 16 100.6 16 108.65V209.975C16 252.85 44.875 281.55 84.6 281.55Z" fill="#161718"/>
<path d="M199.999 48.625C199.999 66.125 213.999 79.25 232.199 79.25C250.399 79.25 264.399 66.125 264.399 48.625C264.399 31.3 250.399 18 232.199 18C213.999 18 199.999 31.3 199.999 48.625ZM204.024 108.65V264.75C204.024 272.8 208.574 277.35 216.624 277.35H247.599C255.649 277.35 260.199 272.8 260.199 264.75V108.65C260.199 100.6 255.649 96.05 247.599 96.05H216.624C208.574 96.05 204.024 100.6 204.024 108.65Z" fill="#161718"/>
<path d="M273.354 34.45V264.75C273.354 272.8 277.904 277.35 285.954 277.35H316.929C324.979 277.35 329.529 272.8 329.529 264.75V34.45C329.529 26.4 324.979 21.85 316.929 21.85H285.954C277.904 21.85 273.354 26.4 273.354 34.45Z" fill="#161718"/>
<path d="M338.134 186.7C338.134 239.9 373.484 281.55 423.359 281.55C447.159 281.55 466.759 272.45 480.934 257.4V264.75C480.934 272.8 485.484 277.35 493.534 277.35H523.634C531.684 277.35 536.234 272.8 536.234 264.75V108.65C536.234 100.6 531.684 96.05 523.634 96.05H493.534C485.484 96.05 480.934 100.6 480.934 108.65V116C466.759 100.95 447.159 91.85 423.359 91.85C373.484 91.85 338.134 133.5 338.134 186.7ZM393.959 186.7C393.959 160.975 412.859 141.2 437.184 141.2C461.684 141.2 480.934 160.975 480.934 186.7C480.934 212.6 461.684 232.2 437.184 232.2C412.859 232.2 393.959 212.6 393.959 186.7Z" fill="#161718"/>
<path d="M746.822 186.7C746.822 133.5 711.297 91.85 661.597 91.85C637.797 91.85 618.022 100.95 604.022 116V34.45C604.022 26.4 599.472 21.85 591.422 21.85H561.322C553.272 21.85 548.722 26.4 548.722 34.45V264.75C548.722 272.8 553.272 277.35 561.322 277.35H591.422C599.472 277.35 604.022 272.8 604.022 264.75V257.4C618.022 272.45 637.797 281.55 661.597 281.55C711.297 281.55 746.822 239.9 746.822 186.7ZM690.997 186.7C690.997 212.6 671.922 232.2 647.597 232.2C623.272 232.2 604.022 212.6 604.022 186.7C604.022 160.975 623.272 141.2 647.597 141.2C671.922 141.2 690.997 160.975 690.997 186.7Z" fill="#161718"/>
</mask>
<g mask="url(#mask0_937_1509)">
<rect x="-75" y="-19.6504" width="890" height="338" fill="#161718"/>
<rect x="-75" y="-19.6504" width="270" height="338" fill="#161718"/>
<rect x="195" y="-19.6504" width="72" height="338" fill="#161718"/>
<rect x="265" y="-19.6504" width="72" height="338" fill="#161718"/>
<rect width="211" height="338" transform="matrix(-1 0 0 1 548 -19.6504)" fill="#161718"/>
</g>
</svg>
