<svg width="24" height="24" viewBox="0 0 24 24" fill="none" xmlns="http://www.w3.org/2000/svg">
<g clip-path="url(#clip0_817_1503)">
<path d="M3 12C3 13.1819 3.23279 14.3522 3.68508 15.4442C4.13738 16.5361 4.80031 17.5282 5.63604 18.364C6.47177 19.1997 7.46392 19.8626 8.55585 20.3149C9.64778 20.7672 10.8181 21 12 21C13.1819 21 14.3522 20.7672 15.4442 20.3149C16.5361 19.8626 17.5282 19.1997 18.364 18.364C19.1997 17.5282 19.8626 16.5361 20.3149 15.4442C20.7672 14.3522 21 13.1819 21 12C21 10.8181 20.7672 9.64778 20.3149 8.55585C19.8626 7.46392 19.1997 6.47177 18.364 5.63604C17.5282 4.80031 16.5361 4.13738 15.4442 3.68508C14.3522 3.23279 13.1819 3 12 3C10.8181 3 9.64778 3.23279 8.55585 3.68508C7.46392 4.13738 6.47177 4.80031 5.63604 5.63604C4.80031 6.47177 4.13738 7.46392 3.68508 8.55585C3.23279 9.64778 3 10.8181 3 12Z" stroke="#63CB8D" stroke-width="2" stroke-linecap="round" stroke-linejoin="round"/>
<path d="M14.8 8.99918C14.6188 8.68494 14.3557 8.42588 14.0386 8.24973C13.7215 8.07358 13.3625 7.98698 13 7.99918H11C10.4696 7.99918 9.96086 8.20989 9.58579 8.58497C9.21071 8.96004 9 9.46875 9 9.99918C9 10.5296 9.21071 11.0383 9.58579 11.4134C9.96086 11.7885 10.4696 11.9992 11 11.9992H13C13.5304 11.9992 14.0391 12.2099 14.4142 12.585C14.7893 12.96 15 13.4687 15 13.9992C15 14.5296 14.7893 15.0383 14.4142 15.4134C14.0391 15.7885 13.5304 15.9992 13 15.9992H11C10.6375 16.0114 10.2785 15.9248 9.96142 15.7486C9.64435 15.5725 9.38115 15.3134 9.2 14.9992" stroke="#28A6B7" stroke-width="2" stroke-linecap="round" stroke-linejoin="round"/>
<path d="M12 7V17" stroke="#28A6B7" stroke-width="2" stroke-linecap="round" stroke-linejoin="round"/>
</g>
<defs>
<clipPath id="clip0_817_1503">
<rect width="24" height="24" fill="white"/>
</clipPath>
</defs>
</svg>
